<svg width="143" height="193" viewBox="0 0 143 193" fill="none" xmlns="http://www.w3.org/2000/svg">
<path d="M21.6567 45.0514C21.6567 39.3365 17.023 34.6719 11.3081 34.6719C5.5931 34.6719 0.928467 39.3056 0.928467 45.0206C0.928467 50.7355 5.56221 55.4001 11.2772 55.4001C11.2772 55.4001 11.2772 55.4001 11.3081 55.4001C17.023 55.4001 21.6567 50.7664 21.6567 45.0514ZM3.21445 45.0514C3.21445 40.6031 6.82877 36.9578 11.2772 36.9578C15.7256 36.9578 19.3708 40.5722 19.3708 45.0206C19.3708 49.4689 15.7564 53.1142 11.3081 53.1142C6.82877 53.1142 3.21445 49.4998 3.21445 45.0514Z" stroke="black" stroke-width="0.308916" stroke-miterlimit="10"/>
<path d="M21.6568 136.274C21.6568 130.559 17.023 125.895 11.2772 125.895C5.56222 125.895 0.897583 130.529 0.897583 136.274C0.897583 142.02 5.53133 146.654 11.2772 146.654C17.023 146.654 21.6568 142.02 21.6568 136.274ZM3.21445 136.274C3.21445 131.826 6.82877 128.212 11.2772 128.212C15.7256 128.212 19.3399 131.826 19.3399 136.274C19.3399 140.723 15.7256 144.337 11.2772 144.337C6.82877 144.337 3.21445 140.754 3.21445 136.274Z" stroke="black" stroke-width="0.308916" stroke-miterlimit="10"/>
<path d="M6.92144 57.9024C7.47748 57.9024 9.76347 57.9024 11.308 57.9024C18.4131 57.9024 24.159 52.1565 24.159 45.0514C24.159 37.9464 18.4131 32.2005 11.308 32.2005C9.76347 32.2005 6.51985 32.2623 6.51985 32.2623L6.95233 23.4273C6.95233 23.4273 7.63194 19.535 8.62048 18.7627C10.3195 17.4652 12.4201 16.7547 14.5517 16.7856H21.6258L22.4599 18.0522C22.4599 18.0522 27.001 18.0522 29.3796 26.7945C31.7583 35.5368 35.1564 53.3922 35.1564 53.3922C35.1564 53.3922 46.7716 71.2166 49.243 81.2255C50.7875 88.0526 51.5907 95.0032 51.6525 102.016V119.562C51.6525 119.562 51.807 126.42 49.8299 129.973C47.8528 133.525 37.3497 148.6 37.3497 148.6L36.8554 164.509C36.8554 164.509 36.7319 166.857 32.6542 166.857C28.5765 166.857 23.0778 166.734 23.0778 166.734C23.0778 166.734 21.9039 169.205 19.9268 169.328C17.9498 169.452 13.0071 169.328 13.0071 169.328C13.0071 169.328 10.2268 169.05 8.9294 162.162C7.63195 155.273 7.01411 149.681 7.01411 149.681C7.01411 149.681 7.01411 149.064 7.50838 149.064C8.00264 149.064 9.48544 149.064 10.5358 149.064C17.6408 149.064 23.3867 143.318 23.3867 136.213C23.3867 129.108 17.6408 123.362 10.5358 123.362C8.99118 123.362 6.36539 123.423 6.36539 123.423V58.2731C6.39628 58.2731 6.36539 57.9024 6.92144 57.9024Z" stroke="black" stroke-width="0.308916" stroke-miterlimit="10"/>
<path d="M28.2058 23.52C28.2058 23.52 26.0434 18.0522 22.4908 18.0522V27.227H27.4335L28.2058 23.52Z" stroke="black" stroke-width="0.308916" stroke-miterlimit="10"/>
<path d="M35.28 53.8247C35.28 53.8247 32.2217 37.6375 30.708 31.7372C30.0902 29.0187 29.287 26.3002 28.2984 23.6744L27.4026 27.1961C27.4026 27.1961 31.5112 43.1053 33.9516 59.6632L35.28 53.8247Z" stroke="black" stroke-width="0.308916" stroke-miterlimit="10"/>
<path d="M23.1086 166.764V140.043L23.016 139.549C22.4908 141.495 21.5332 143.318 20.2048 144.862C18.5058 146.685 16.3743 148.044 13.9956 148.816C11.9877 149.064 9.94881 149.187 7.94085 149.125C7.94085 149.125 6.95232 148.94 7.10678 150.33C7.26123 151.72 8.43512 159.876 9.02206 162.347C9.609 164.818 10.9064 169.267 13.038 169.359C15.2004 169.452 20.2048 169.359 20.2048 169.359C20.2048 169.359 21.7185 169.174 23.1086 166.764Z" stroke="black" stroke-width="0.308916" stroke-miterlimit="10"/>
<path d="M32.9631 163.49V166.764H25.2093V163.459C25.2093 162.378 26.1051 161.482 27.1864 161.482H30.8933C31.9746 161.451 32.9013 162.285 32.9631 163.366C32.9631 163.428 32.9631 163.459 32.9631 163.49Z" stroke="black" stroke-width="0.308916" stroke-miterlimit="10"/>
<path d="M35.3726 53.6084L34.0752 59.6323C39.4812 66.2122 43.9605 73.5026 47.3895 81.2564L48.4707 78.6615C48.4707 78.6924 46.7717 71.9272 35.3726 53.6084Z" stroke="black" stroke-width="0.308916" stroke-miterlimit="10"/>
<path d="M47.0806 85.087C45.2888 79.9281 40.408 70.259 33.7045 61.8256H11.3698C11.3698 61.8256 9.11475 61.9801 9.11475 63.9571V97.5054L34.2605 97.7217L48.8723 100.471C48.8723 100.471 48.8414 90.1532 47.0806 85.087ZM34.3532 95.6828L33.2102 64.3278C33.2102 64.3278 43.1573 78.26 45.3506 84.8399C46.7099 89.1956 47.4204 93.7058 47.4821 98.2777L34.3532 95.6828Z" stroke="black" stroke-width="0.308916" stroke-miterlimit="10"/>
<path d="M47.513 126.791C48.5325 126.296 49.1503 125.246 49.1503 124.103C49.1503 122.126 48.9341 101.83 48.9341 101.83L34.3223 99.2972L9.23831 99.0191V121.848C9.23831 121.848 20.0195 120.767 23.9118 130.745C24.0354 131.733 24.9004 132.444 25.8889 132.351H34.7857L47.513 126.791ZM34.6312 101.058L47.4512 103.128L47.6675 124.999L35.558 130.189L34.6312 101.058ZM34.6312 101.058L47.4512 103.128L47.6675 124.999L35.558 130.189L34.6312 101.058Z" stroke="black" stroke-width="0.308916" stroke-miterlimit="10"/>
<path d="M34.6312 101.058L47.4512 103.128L47.6675 124.999L35.558 130.189L34.6312 101.058Z" stroke="black" stroke-width="0.308916" stroke-miterlimit="10"/>
<path d="M47.8528 128.181L35.7433 133.896L36.0213 139.58C36.0213 139.58 37.3188 142.947 39.2032 140.568C40.8713 138.468 47.3277 130.683 47.3277 130.683C47.7911 129.911 47.9764 129.046 47.8528 128.181Z" stroke="black" stroke-width="0.308916" stroke-miterlimit="10"/>
<path d="M37.3497 148.569C37.3497 148.569 35.558 149.558 35.4962 150.979C35.4344 152.4 35.1255 164.262 35.1255 164.262C35.1255 164.262 35.1255 165.251 33.1484 165.251V166.795C33.1484 166.795 36.8554 166.795 36.8554 164.108L37.3497 148.569Z" stroke="black" stroke-width="0.308916" stroke-miterlimit="10"/>
<path d="M22.4908 18.0831L21.6567 16.7547H13.9647C11.3698 16.7547 10.0106 18.0213 8.77494 18.7318C7.53927 19.4423 6.98323 23.4273 6.98323 23.4273L6.58163 32.0152L6.79788 32.1696C6.79788 32.1696 8.03354 32.1696 10.474 32.1696C12.8835 32.1079 15.2622 32.6948 17.3937 33.8069C19.7724 34.9499 22.4599 38.5024 22.4599 38.5024L22.4908 18.0831ZM11.5861 19.3805C11.5861 18.7009 12.6673 18.1449 14.0265 18.1449C15.3857 18.1449 16.467 18.7009 16.467 19.3805C16.467 20.0601 15.3549 20.5853 14.0265 20.5853C12.6982 20.5853 11.5552 20.0601 11.5861 19.3805Z" stroke="black" stroke-width="0.308916" stroke-miterlimit="10"/>
<path d="M27.4026 27.227H22.5835V38.6569C23.5411 40.6648 24.0663 42.8272 24.159 45.0514C24.159 47.7081 23.3558 50.2721 21.8421 52.4654C20.2666 54.5043 18.1969 56.1415 15.8182 57.1919C13.3778 58.1804 9.33099 57.9332 9.33099 57.9332V63.0304C9.88704 62.2272 10.8138 61.7329 11.7714 61.7329H33.7045L33.9825 59.6632C33.9825 59.6632 32.5306 50.4266 31.0169 42.9508C29.5032 35.475 27.4026 27.227 27.4026 27.227Z" stroke="black" stroke-width="0.308916" stroke-miterlimit="10"/>
<path d="M48.5325 78.6924L46.4318 83.3571C47.5439 86.4153 48.2235 89.5972 48.4089 92.8408C48.7796 98.4322 48.8723 100.224 48.8723 100.224L49.1194 122.991V124.567V130.93C49.1194 130.93 51.6216 128.768 51.6216 121.663C51.6216 114.558 51.7452 106.526 51.6216 102.448C51.4981 98.3704 51.3745 94.2 50.9729 91.1109C50.6331 87.9599 50.0153 82.2759 48.5325 78.6924Z" stroke="black" stroke-width="0.308916" stroke-miterlimit="10"/>
<path d="M9.23832 121.694C9.23832 121.694 14.9533 121.848 17.3628 123.424C19.4326 124.783 20.6064 125.215 22.429 127.995C22.8615 128.737 23.2631 129.478 23.6338 130.251C23.8501 131.023 24.2825 131.672 24.9004 132.166C25.3946 132.444 34.7857 132.32 34.7857 132.32L35.6507 133.772L35.836 139.549C35.836 139.549 36.3612 140.846 37.1026 141.186V148.538C36.3921 149.094 35.836 149.867 35.5271 150.732C35.4035 151.504 35.3726 152.276 35.4035 153.049L35.0637 163.922C35.0637 163.922 35.1255 165.189 33.0867 165.189L32.8704 164.973V163.212C32.8704 162.192 32.0672 161.358 31.0478 161.328C31.0169 161.328 30.986 161.328 30.9551 161.328H26.6612C25.7653 161.451 25.1166 162.285 25.2093 163.212V166.548H23.294L23.1087 166.363V140.445L23.016 139.642C23.4794 137.881 23.572 136.027 23.2322 134.236C22.6144 131.641 22.429 129.818 19.2781 126.636C16.0963 123.454 11.1845 123.3 11.1845 123.3H9.20743L9.23832 121.694Z" stroke="black" stroke-width="0.308916" stroke-miterlimit="10"/>
<path d="M122.024 45.0515C122.024 39.3365 126.688 34.6719 132.403 34.7028C138.118 34.7028 142.783 39.3674 142.752 45.0823C142.752 50.7973 138.118 55.431 132.372 55.431C126.657 55.431 122.024 50.7973 122.024 45.0515ZM140.466 45.0515C140.466 40.6031 136.852 36.9578 132.403 36.9578C127.955 36.9578 124.31 40.5722 124.31 45.0206C124.31 49.469 127.924 53.1142 132.372 53.1142C136.852 53.1142 140.466 49.4998 140.466 45.0515Z" stroke="black" stroke-width="0.308916" stroke-miterlimit="10"/>
<path d="M122.024 136.274C122.024 130.559 126.657 125.895 132.403 125.895C138.118 125.895 142.783 130.529 142.783 136.274C142.783 141.989 138.149 146.654 132.403 146.654C126.657 146.654 122.024 142.02 122.024 136.274ZM140.466 136.274C140.466 131.826 136.852 128.212 132.403 128.212C127.955 128.212 124.341 131.826 124.341 136.274C124.341 140.723 127.955 144.337 132.403 144.337C136.852 144.337 140.466 140.723 140.466 136.274Z" stroke="black" stroke-width="0.308916" stroke-miterlimit="10"/>
<path d="M136.759 57.9024C136.203 57.9024 133.917 57.9024 132.403 57.9024C125.298 57.9024 119.552 52.1565 119.552 45.0514C119.552 37.9464 125.298 32.2005 132.403 32.2005C133.948 32.2005 137.191 32.2623 137.191 32.2623L136.759 23.4273C136.759 23.4273 136.11 19.535 135.091 18.7627C133.392 17.4652 131.291 16.7547 129.16 16.7856H122.024L121.19 18.0522C121.19 18.0522 116.648 18.0522 114.27 26.7945C111.86 35.5368 108.493 53.3922 108.493 53.3922C108.493 53.3922 96.8778 71.2166 94.4065 81.2255C92.8619 88.0526 92.0587 95.0032 91.9969 102.016V119.562C91.9969 119.562 91.8425 126.42 93.8504 129.973C95.8275 133.525 106.331 148.6 106.331 148.6L106.825 164.509C106.825 164.509 106.948 166.857 111.026 166.857C115.104 166.857 120.603 166.734 120.603 166.734C120.603 166.734 121.746 169.205 123.754 169.328C125.731 169.452 130.673 169.328 130.673 169.328C130.673 169.328 133.454 169.05 134.751 162.162C136.079 155.273 136.666 149.681 136.666 149.681C136.666 149.681 136.666 149.064 136.172 149.064C135.678 149.064 134.195 149.064 133.145 149.064C126.04 149.064 120.294 143.318 120.294 136.213C120.294 129.108 126.04 123.362 133.145 123.362C134.689 123.362 137.315 123.423 137.315 123.423V58.2731C137.284 58.2731 137.315 57.9024 136.759 57.9024Z" stroke="black" stroke-width="0.308916" stroke-miterlimit="10"/>
<path d="M115.475 23.52C115.475 23.52 117.637 18.0522 121.19 18.0522V27.227H116.247L115.475 23.52Z" stroke="black" stroke-width="0.308916" stroke-miterlimit="10"/>
<path d="M108.4 53.8247C108.4 53.8247 111.459 37.6375 113.003 31.7372C113.621 29.0187 114.424 26.3002 115.413 23.6744L116.278 27.2579C116.278 27.2579 112.138 43.1053 109.729 59.6941L108.4 53.8247Z" stroke="black" stroke-width="0.308916" stroke-miterlimit="10"/>
<path d="M120.572 166.764V140.043L120.634 139.549C121.19 141.495 122.147 143.318 123.445 144.862C125.144 146.685 127.306 148.044 129.654 148.816C131.662 149.064 133.701 149.125 135.74 149.064C135.74 149.064 136.728 148.878 136.574 150.268C136.419 151.658 135.245 159.814 134.658 162.285C134.04 164.757 132.774 169.205 130.642 169.298C128.48 169.39 123.476 169.298 123.476 169.298C123.476 169.298 121.9 169.174 120.572 166.764Z" stroke="black" stroke-width="0.308916" stroke-miterlimit="10"/>
<path d="M118.471 163.49V166.764H110.717V163.459C110.717 162.378 111.613 161.482 112.694 161.482H116.432C117.513 161.451 118.44 162.316 118.44 163.428C118.471 163.459 118.471 163.459 118.471 163.49Z" stroke="black" stroke-width="0.308916" stroke-miterlimit="10"/>
<path d="M108.308 53.6084L109.605 59.6323C104.23 66.2122 99.7508 73.5026 96.2909 81.2564L95.1788 78.6615C95.1788 78.6924 96.9088 71.9272 108.308 53.6084Z" stroke="black" stroke-width="0.308916" stroke-miterlimit="10"/>
<path d="M96.5999 85.087C98.3916 79.9281 103.303 70.259 109.976 61.8256H132.311C132.311 61.8256 134.566 61.9801 134.566 63.9571V97.5054L109.42 97.7217L94.8082 100.471C94.7773 100.471 94.8082 90.1532 96.5999 85.087ZM109.327 95.6828L110.47 64.3278C110.47 64.3278 100.585 78.26 98.3298 84.8399C96.9706 89.1956 96.2601 93.7058 96.1983 98.2777L109.327 95.6828ZM109.327 95.6828L110.47 64.3278C110.47 64.3278 100.585 78.26 98.3298 84.8399C96.9706 89.1956 96.2601 93.7058 96.1983 98.2777L109.327 95.6828Z" stroke="black" stroke-width="0.308916" stroke-miterlimit="10"/>
<path d="M96.1673 126.791C95.1479 126.296 94.5301 125.246 94.5301 124.103C94.5301 122.126 94.7463 101.83 94.7463 101.83L109.358 99.2972L134.442 99.0191V121.848C134.442 121.848 123.661 120.767 119.769 130.745C119.645 131.733 118.78 132.444 117.791 132.351H108.895L96.1673 126.791ZM109.049 101.058L96.1982 103.128L95.982 124.999L108.092 130.189L109.049 101.058ZM109.049 101.058L96.1982 103.128L95.982 124.999L108.092 130.189L109.049 101.058ZM109.049 101.058L96.1982 103.128L95.982 124.999L108.092 130.189L109.049 101.058Z" stroke="black" stroke-width="0.308916" stroke-miterlimit="10"/>
<path d="M95.7967 128.181L107.906 133.896L107.628 139.58C107.628 139.58 106.3 142.947 104.446 140.568C102.809 138.468 96.3218 130.683 96.3218 130.683C95.8893 129.911 95.704 129.046 95.7967 128.181Z" stroke="black" stroke-width="0.308916" stroke-miterlimit="10"/>
<path d="M106.3 148.569C106.3 148.569 108.091 149.558 108.153 150.979C108.246 152.4 108.524 164.262 108.524 164.262C108.524 164.262 108.524 165.251 110.501 165.251V166.795C110.501 166.795 106.794 166.795 106.794 164.108L106.3 148.569Z" stroke="black" stroke-width="0.308916" stroke-miterlimit="10"/>
<path d="M121.19 18.0831L122.024 16.7547H129.747C132.341 16.7547 133.701 18.0213 134.936 18.7318C136.172 19.4423 136.759 23.4582 136.759 23.4582L137.161 32.0461L136.944 32.2005C136.944 32.2005 135.709 32.2005 133.268 32.2005C130.859 32.1388 128.48 32.7257 126.349 33.8378C123.97 34.9808 121.282 38.5333 121.282 38.5333L121.19 18.0831ZM132.063 19.3805C132.063 18.7009 130.951 18.1449 129.623 18.1449C128.264 18.1449 127.183 18.7009 127.183 19.3805C127.183 20.0601 128.264 20.5853 129.623 20.5853C130.982 20.5853 132.094 20.0292 132.094 19.3805H132.063Z" stroke="black" stroke-width="0.308916" stroke-miterlimit="10"/>
<path d="M116.278 27.227H121.097V38.6569C120.139 40.6648 119.614 42.8272 119.521 45.0514C119.521 47.7081 120.325 50.2721 121.838 52.4654C123.414 54.5352 125.483 56.1415 127.831 57.1919C130.272 58.1804 134.318 57.9332 134.318 57.9332V63.0304C133.762 62.2272 132.836 61.7329 131.878 61.7329H109.945L109.667 59.6632C109.667 59.6632 111.119 50.4266 112.633 42.9508C114.146 35.475 116.278 27.227 116.278 27.227Z" stroke="black" stroke-width="0.308916" stroke-miterlimit="10"/>
<path d="M95.1479 78.6924L97.2486 83.3571C96.1365 86.4153 95.4569 89.5972 95.2715 92.8408C94.9008 98.4322 94.839 100.224 94.839 100.224L94.561 122.991V124.567V130.93C94.561 130.93 92.0897 128.737 92.0588 121.601C92.0279 114.465 91.9352 106.464 92.0588 102.386C92.1824 98.3086 92.3368 94.1382 92.7075 91.0491C93.0473 87.8981 93.6652 82.2759 95.1479 78.6924Z" stroke="black" stroke-width="0.308916" stroke-miterlimit="10"/>
<path d="M134.411 121.694C134.411 121.694 128.727 121.848 126.287 123.424C124.186 124.783 123.043 125.215 121.19 127.995C120.757 128.737 120.355 129.478 119.985 130.251C119.769 131.023 119.305 131.672 118.687 132.166C118.193 132.444 108.802 132.32 108.802 132.32L107.937 133.772L107.752 139.549C107.752 139.549 107.227 140.846 106.485 141.186V148.538C107.196 149.094 107.752 149.867 108.03 150.732C108.153 151.504 108.215 152.276 108.153 153.049L108.493 163.922C108.493 163.922 108.4 165.189 110.47 165.189L110.686 164.973V163.212C110.656 162.192 111.49 161.358 112.509 161.328C112.54 161.328 112.571 161.328 112.602 161.328H116.927C117.822 161.451 118.471 162.285 118.378 163.212V166.548H120.355L120.541 166.363V140.445L120.603 139.642C120.139 137.881 120.047 136.027 120.386 134.236C120.973 131.641 121.159 129.818 124.341 126.636C127.522 123.454 132.434 123.3 132.434 123.3H134.411V121.694Z" stroke="black" stroke-width="0.308916" stroke-miterlimit="10"/>
<path d="M82.8839 135.008C87.0852 134.421 91.1938 133.401 95.1788 131.98C91.5954 127.779 91.7807 120.273 91.7807 120.273C91.7807 120.273 91.9043 106.989 91.9352 97.8761C92.1514 91.4507 93.0782 85.087 94.7463 78.9087C90.2361 77.9201 76.304 77.395 76.304 77.395H67.2837C67.2837 77.395 53.3515 77.951 48.8414 78.9087C50.5404 85.2415 51.4671 91.7596 51.6216 98.3395C51.7761 107.453 51.807 120.242 51.807 120.242C51.807 120.242 51.8996 128.335 48.5016 132.197C52.4866 133.525 56.5643 134.483 60.7037 135.039C64.3798 135.379 68.0868 135.533 71.763 135.471C75.5317 135.502 79.2078 135.348 82.8839 135.008Z" stroke="black" stroke-width="0.308916" stroke-miterlimit="10"/>
<path d="M101.017 57.161C101.017 57.161 95.8893 71.9889 94.7772 78.9396C94.7772 78.9396 88.4753 77.5185 75.4082 77.3641C66.5423 77.0552 57.6764 77.5803 48.9341 78.9396C48.9341 78.9396 45.1962 63.8644 42.8793 57.161C42.8793 57.161 47.9764 50.303 59.5917 50.303H84.7375C84.7066 50.303 91.5645 50.0868 101.017 57.161Z" stroke="black" stroke-width="0.308916" stroke-miterlimit="10"/>
<path d="M95.2715 131.98L99.7199 146.994C92.3368 149.033 84.7374 150.083 77.0763 150.145C65.7391 149.99 60.055 149.681 56.6878 149.156C53.3207 148.631 44.5474 147.179 44.5474 147.179L48.6251 132.166C48.6251 132.166 56.07 135.502 68.1177 135.471C71.6085 135.471 74.0489 135.471 75.8715 135.471C79.6094 135.471 83.3473 135.131 87.0234 134.483C89.8037 133.834 92.553 133 95.2715 131.98Z" stroke="black" stroke-width="0.308916" stroke-miterlimit="10"/>
<path d="M99.7199 146.963V161.328C99.689 162.749 99.2565 164.108 98.5151 165.282L89.989 179.523H54.8961L45.7213 165.189C44.8872 163.768 44.4857 162.162 44.5165 160.493V147.21C44.5165 147.21 56.1627 149.465 62.9897 149.65C69.8168 149.836 77.3852 150.114 77.3852 150.114C81.1849 150.114 84.9846 149.836 88.7534 149.28C92.8002 148.538 99.7199 146.963 99.7199 146.963Z" stroke="black" stroke-width="0.308916" stroke-miterlimit="10"/>
<path d="M46.7098 166.548H43.4353V176.897C43.2809 178.194 44.2076 179.337 45.5051 179.492C45.536 179.492 45.5977 179.492 45.6286 179.492H54.9579L46.7098 166.548Z" stroke="black" stroke-width="0.308916" stroke-miterlimit="10"/>
<path d="M97.7119 166.548H101.264V176.897C101.419 178.194 100.492 179.337 99.1947 179.492C99.1638 179.492 99.102 179.492 99.0711 179.492H89.8963L97.7119 166.548Z" stroke="black" stroke-width="0.308916" stroke-miterlimit="10"/>
<path d="M102.716 189.532C103.705 187.431 104.354 181.685 102.716 180.48C101.573 179.646 101.295 177.299 101.295 177.299C101.141 178.689 99.8744 179.677 98.5151 179.492C98.4842 179.492 98.4533 179.492 98.4533 179.492H46.3083C44.949 179.677 43.6516 178.75 43.4663 177.36C43.4663 177.329 43.4663 177.298 43.4663 177.298C43.4663 177.298 43.1882 179.646 42.0761 180.48C40.3771 181.685 41.0876 187.4 42.0143 189.532C42.8175 191.509 44.7637 192.744 46.8952 192.683H97.8664C99.967 192.744 101.913 191.509 102.716 189.532Z" stroke="black" stroke-width="0.308916" stroke-miterlimit="10"/>
<path d="M45.4433 13.3257C45.4433 13.3257 41.8907 13.7891 41.8907 19.2569H53.7531C53.7531 19.2569 54.6181 18.9171 56.348 16.7238C58.078 14.5305 55.8538 13.3875 54.4327 13.3875C53.0426 13.3875 45.4433 13.3875 45.4433 13.3257Z" stroke="black" stroke-width="0.308916" stroke-miterlimit="10"/>
<path d="M98.4842 13.3257C98.4842 13.3257 102.037 13.7891 102.037 19.2569H90.1744C90.1744 19.2569 89.3403 18.9171 87.5795 16.7238C85.8495 14.5305 88.0737 13.3875 89.4948 13.3875C90.9158 13.3875 98.4842 13.3875 98.4842 13.3257Z" stroke="black" stroke-width="0.308916" stroke-miterlimit="10"/>
<path d="M86.8998 15.0248C87.0543 13.6038 89.2476 13.2949 89.2476 13.2949C89.2476 13.2949 96.5998 13.2949 97.8664 13.2949C98.6078 13.264 99.3492 13.5111 99.967 13.9436H102.191C104.786 13.9436 104.446 11.6885 104.446 11.6885C104.168 9.30983 103.674 6.96207 102.994 4.67609C101.913 1.3089 99.967 1.06177 99.967 1.06177H43.9605C43.9605 1.06177 41.9834 1.27801 40.9331 4.67609C40.2535 6.96207 39.7592 9.30983 39.4812 11.6885C39.4812 11.6885 39.1414 13.9436 41.7363 13.9436H43.9914C44.6092 13.5111 45.3506 13.264 46.092 13.2949C47.3586 13.2949 54.7108 13.2949 54.7108 13.2949C54.7108 13.2949 56.8732 13.6038 57.0276 15.0248C57.1821 16.4458 54.062 19.1952 54.062 19.1952H89.8963C89.8654 19.1952 86.7763 16.4458 86.8998 15.0248ZM50.8184 6.59137C49.9843 6.59137 49.3356 5.91175 49.3356 5.10857C49.3356 4.30539 50.0152 3.62577 50.8184 3.62577H92.9546C93.7887 3.62577 94.4374 4.30539 94.4374 5.10857C94.4374 5.91175 93.7578 6.59137 92.9546 6.59137H50.8184ZM60.9818 17.8668C60.2095 17.8668 59.5607 17.249 59.5607 16.4767C59.5607 15.7044 62.9897 12.3063 71.8556 12.3063C80.7215 12.3063 84.1505 15.7044 84.1505 16.4767C84.1505 17.249 83.5326 17.8668 82.7603 17.8668H60.9818ZM45.8758 6.74583C44.9799 6.74583 44.2694 6.03532 44.2694 5.13946C44.2694 4.2436 44.9799 3.5331 45.8758 3.5331C46.7716 3.5331 47.4821 4.2436 47.4821 5.13946C47.4821 6.00443 46.7716 6.74583 45.8758 6.74583ZM97.959 6.74583C97.0632 6.74583 96.3527 6.03532 96.3527 5.13946C96.3527 4.2436 97.0632 3.5331 97.959 3.5331C98.8549 3.5331 99.5654 4.2436 99.5654 5.13946C99.5654 6.03532 98.824 6.74583 97.959 6.74583Z" stroke="black" stroke-width="0.308916" stroke-miterlimit="10"/>
<path d="M101.017 57.2536L99.1947 34.4556C99.1947 34.4556 98.7313 19.3187 88.2591 19.3187H54.1856C49.8608 20.091 46.3082 23.242 44.9799 27.4432C44.3621 29.2349 43.7442 39.2438 43.7442 39.2438L42.7557 57.3463C46.957 52.9597 52.7646 50.5193 58.8194 50.581H85.0155C84.9846 50.5502 91.5336 50.1177 101.017 57.2536Z" stroke="black" stroke-width="0.308916" stroke-miterlimit="10"/>
<path d="M98.7313 184.774V186.72C98.7313 187.153 98.3915 187.493 97.959 187.493H91.41C90.9775 187.493 90.6377 187.153 90.6377 186.72V184.774C90.6377 184.342 90.9775 184.002 91.41 184.002H97.959C98.3915 183.971 98.7313 184.342 98.7313 184.774Z" stroke="black" stroke-width="0.308916" stroke-miterlimit="10"/>
<path d="M53.8767 184.774V186.72C53.8767 187.153 53.5369 187.493 53.1044 187.493H46.5554C46.1229 187.493 45.7831 187.153 45.7831 186.72V184.774C45.7831 184.342 46.1229 184.002 46.5554 184.002H53.1044C53.506 183.971 53.8767 184.342 53.8767 184.774Z" stroke="black" stroke-width="0.308916" stroke-miterlimit="10"/>
<path d="M90.0199 179.399L54.9579 179.492L46.7098 166.548H97.5266L90.0199 179.399Z" stroke="black" stroke-width="0.308916" stroke-miterlimit="10"/>
<path d="M134.597 57.8715H137.222V123.393H134.597V57.8715Z" stroke="black" stroke-width="0.308916" stroke-miterlimit="10"/>
<path d="M6.48895 57.8715H9.11474V123.393H6.48895V57.8715Z" stroke="black" stroke-width="0.308916" stroke-miterlimit="10"/>
<path d="M34.3532 95.6828L33.2102 64.3278C33.2102 64.3278 43.1573 78.2599 45.3506 84.8399C46.7098 89.1956 47.4204 93.7058 47.4821 98.2777L34.3532 95.6828Z" stroke="black" stroke-width="0.308916" stroke-miterlimit="10"/>
<path d="M109.327 95.6828L110.47 64.3278C110.47 64.3278 100.585 78.2599 98.3298 84.8399C96.9706 89.1956 96.26 93.7058 96.1983 98.2777L109.327 95.6828Z" stroke="black" stroke-width="0.308916" stroke-miterlimit="10"/>
<path d="M45.8758 6.74581C44.9799 6.74581 44.2694 6.0353 44.2694 5.13945C44.2694 4.24359 44.9799 3.53308 45.8758 3.53308C46.7716 3.53308 47.4821 4.24359 47.4821 5.13945C47.4821 6.00441 46.7716 6.74581 45.8758 6.74581Z" stroke="black" stroke-width="0.308916" stroke-miterlimit="10"/>
<path d="M97.9591 6.74581C97.0632 6.74581 96.3527 6.0353 96.3527 5.13945C96.3527 4.24359 97.0632 3.53308 97.9591 3.53308C98.8549 3.53308 99.5655 4.24359 99.5655 5.13945C99.5655 6.0353 98.8241 6.74581 97.9591 6.74581Z" stroke="black" stroke-width="0.308916" stroke-miterlimit="10"/>
<path d="M11.5861 19.3805C11.5861 18.7009 12.6673 18.1449 14.0265 18.1449C15.3858 18.1449 16.467 18.7009 16.467 19.3805C16.467 20.0601 15.3549 20.5853 14.0265 20.5853C12.6982 20.5853 11.5552 20.0601 11.5861 19.3805Z" stroke="black" stroke-width="0.308916" stroke-miterlimit="10"/>
<path d="M132.094 19.3496C132.094 18.67 130.982 18.114 129.654 18.114C128.295 18.114 127.213 18.67 127.213 19.3496C127.213 20.0292 128.295 20.5544 129.654 20.5544C131.013 20.5544 132.125 19.9983 132.125 19.3496H132.094Z" stroke="black" stroke-width="0.308916" stroke-miterlimit="10"/>
<path d="M110.47 64.3587L105.033 72.6068C105.033 72.6068 104.354 75.8504 106.547 76.1284C107.813 76.3138 109.111 75.7577 109.852 74.7383L110.47 64.3587Z" stroke="black" stroke-width="0.308916" stroke-miterlimit="10"/>
<path d="M33.2102 64.3587L38.6471 72.6068C38.6471 72.6068 39.3267 75.8504 37.1334 76.1284C35.8669 76.2829 34.6003 75.7577 33.828 74.7383L33.2102 64.3587Z" stroke="black" stroke-width="0.308916" stroke-miterlimit="10"/>
<path d="M109.049 101.058L96.1983 103.128L95.982 124.999L108.092 130.189L109.049 101.058Z" stroke="black" stroke-width="0.308916" stroke-miterlimit="10"/>
</svg>
