<svg version="1.1" id="Layer_1" xmlns="http://www.w3.org/2000/svg" xmlns:xlink="http://www.w3.org/1999/xlink" x="0px" y="0px"
	 width="100%" viewBox="0 0 725 366" enable-background="new 0 0 725 366" xml:space="preserve">

<path fill="white" opacity="1.000000" stroke="none" 
	d="
M244.775620,231.999878 
	C244.775513,212.001511 244.671738,192.502136 244.859390,173.005569 
	C244.898758,168.915878 243.807968,167.574066 239.556473,167.581726 
	C171.229065,167.704926 102.901276,167.713715 34.573959,167.568039 
	C29.993074,167.558273 29.068829,169.080826 29.091858,173.307404 
	C29.254393,203.137360 29.240070,232.968903 29.096905,262.799072 
	C29.078636,266.605255 29.868378,268.014496 34.026016,267.975677 
	C56.355537,267.767090 78.688217,267.835114 101.019257,267.932800 
	C103.665199,267.944366 105.029945,267.271759 106.293175,264.726959 
	C113.168144,250.877213 128.219696,243.883377 143.061249,247.312256 
	C157.723038,250.699600 167.933853,263.454498 168.146957,278.648163 
	C168.359924,293.833466 158.558868,307.061279 143.427521,310.631195 
	C129.571899,313.900177 114.492226,309.140289 106.830116,294.299835 
	C105.103760,290.956085 103.171249,290.085175 99.596794,290.102448 
	C69.266830,290.249146 38.935822,290.178772 8.605125,290.166779 
	C8.277310,290.166656 7.949532,290.076813 7.249762,289.974457 
	C7.249762,241.837280 7.249762,193.647964 7.249762,145.216278 
	C93.758209,145.216278 180.159348,145.216278 267.051636,145.216278 
	C267.051636,177.819077 267.051636,210.220032 267.051636,242.917664 
	C332.775543,242.917664 398.008850,242.917664 463.727417,242.917664 
	C463.727417,210.373230 463.727417,177.964493 463.727417,145.267029 
	C549.287537,145.267029 634.363464,145.267029 719.787415,145.267029 
	C719.787415,193.317383 719.787415,241.385559 719.787415,290.189484 
	C718.212585,290.189484 716.462219,290.189453 714.711853,290.189484 
	C685.547607,290.189514 656.383240,290.237061 627.219421,290.124054 
	C623.919739,290.111267 622.032166,290.877777 620.368652,294.056183 
	C612.532776,309.028015 598.131958,313.704590 583.871887,310.795715 
	C568.985046,307.758972 558.981445,294.426941 558.846497,278.998260 
	C558.716919,264.182617 568.355103,251.485016 582.590759,247.716919 
	C597.677551,243.723526 612.769348,249.897293 619.933838,263.560120 
	C621.809265,267.136627 623.886292,267.984863 627.598083,267.957245 
	C649.428345,267.794556 671.260498,267.863892 693.091980,267.894287 
	C695.728699,267.897949 697.922241,268.120819 697.906189,264.192444 
	C697.777649,232.695770 697.825500,201.198380 697.800537,169.701233 
	C697.800171,169.238205 697.559143,168.775391 697.251465,167.668655 
	C695.569580,167.668655 693.795471,167.668655 692.021362,167.668655 
	C625.360229,167.668671 558.699036,167.726013 492.038361,167.553787 
	C487.009918,167.540771 486.032440,169.189987 486.063690,173.810898 
	C486.257416,202.473862 486.161102,231.138794 486.161072,259.803070 
	C486.161072,261.618561 486.161072,263.434082 486.161072,265.558014 
	C405.655579,265.558014 325.441986,265.558014 244.775620,265.558014 
	C244.775620,254.415146 244.775620,243.457520 244.775620,231.999878 
z"/>
<path fill="white" opacity="1.000000" stroke="none" 
	d="
M239.999847,124.290375 
	C202.387253,124.290382 165.274673,124.290382 126.962982,124.290382 
	C132.645248,117.239014 137.662933,110.975456 142.719620,104.743538 
	C168.088211,73.478920 193.500046,42.249256 218.785812,10.917825 
	C221.053802,8.107588 223.268906,6.752218 227.051270,6.757044 
	C318.017975,6.873135 408.984833,6.861528 499.951660,6.789617 
	C503.165283,6.787077 505.495972,7.457175 507.630524,10.096557 
	C537.960083,47.599342 568.390320,85.020683 598.784302,122.471420 
	C598.972107,122.702896 598.991699,123.070969 599.341858,124.156784 
	C546.649902,124.156784 494.208740,124.156784 441.308197,124.156784 
	C441.308197,158.154114 441.308197,191.378387 441.308197,224.876373 
	C389.434509,224.876373 338.025024,224.876373 285.895416,224.876373 
	C285.895416,223.285431 285.895416,221.536606 285.895416,219.787796 
	C285.895355,189.632126 285.825409,159.476074 285.980957,129.321213 
	C286.001099,125.413033 285.019958,124.128662 280.982727,124.200012 
	C267.492126,124.438423 253.994675,124.290382 239.999847,124.290375 
M534.890076,79.616051 
	C522.287415,64.113342 509.758759,48.549145 496.987457,33.186642 
	C495.413025,31.292772 492.547180,29.328903 490.275299,29.323629 
	C405.783844,29.127548 321.291870,29.140074 236.800171,29.273197 
	C234.837540,29.276293 232.250809,30.468796 231.010742,31.975359 
	C213.345459,53.436981 195.853058,75.041008 178.357285,96.641739 
	C177.211151,98.056786 176.376190,99.723885 174.885345,102.082359 
	C219.983719,102.082359 263.900818,102.082359 308.212524,102.082359 
	C308.212524,104.275780 308.212524,106.072372 308.212524,107.868965 
	C308.212555,137.866089 308.280914,167.863571 308.128967,197.859924 
	C308.109253,201.758484 309.056549,202.992661 313.130310,202.972443 
	C346.626282,202.806122 380.123779,202.806946 413.619812,202.969604 
	C417.788910,202.989838 418.941589,201.816833 418.918091,197.661362 
	C418.748657,167.665192 418.827209,137.667633 418.827209,107.670502 
	C418.827209,105.894783 418.827240,104.119064 418.827240,101.705833 
	C463.355957,101.705833 507.340912,101.705833 552.613892,101.705833 
	C546.311279,93.845436 540.825928,87.004311 534.890076,79.616051 
z"/>
<path fill="white" opacity="1.000000" stroke="none" 
	d="
M547.794800,238.812164 
	C532.709045,256.015472 527.950073,275.398376 534.893982,296.877106 
	C542.010498,318.889740 557.393738,332.451172 580.121765,337.038452 
	C603.892578,341.836243 623.167236,333.770233 638.399048,315.349762 
	C642.947876,309.848694 649.475037,308.451965 654.600708,312.210602 
	C659.958618,316.139526 660.697266,323.545074 656.061584,329.461456 
	C642.996094,346.136322 625.883423,356.313843 605.082642,359.832977 
	C566.818237,366.306732 529.025452,344.928406 515.021912,309.267639 
	C495.874512,260.508087 526.486938,206.340042 578.298523,198.221130 
	C609.878296,193.272552 635.677979,204.600342 656.130005,228.721512 
	C660.590820,233.982559 660.019470,241.327026 655.160156,245.202621 
	C649.881775,249.412445 643.317871,248.512955 638.517700,242.743118 
	C629.201355,231.544662 617.784973,223.814972 603.304382,221.009109 
	C581.694702,216.821838 563.290344,222.717026 547.794800,238.812164 
z"/>
<path fill="white" opacity="1.000000" stroke="none" 
	d="
M121.463806,198.224304 
	C147.949265,194.353836 170.916779,201.182434 190.629074,218.585983 
	C205.696625,231.888733 214.212524,248.863174 216.975357,268.610474 
	C222.749313,309.879425 195.039261,351.291992 150.642334,359.382507 
	C118.111900,365.310516 91.104027,354.434753 70.291435,328.668091 
	C66.119125,323.502625 67.250435,315.993286 72.324722,312.258606 
	C77.482971,308.462128 84.167191,309.680023 88.550995,315.270752 
	C98.897667,328.466064 112.273697,336.314331 129.029984,338.054077 
	C155.927048,340.846619 180.081314,325.253174 189.942245,303.040192 
	C205.435135,268.140472 183.503220,226.169464 145.733994,220.371414 
	C123.220650,216.915329 103.800972,224.294739 88.979950,242.196991 
	C84.550331,247.547531 79.534988,249.132736 74.122726,246.730881 
	C69.721008,244.777481 66.949760,239.922318 68.096733,234.783829 
	C68.679352,232.173691 70.276855,229.590118 71.997467,227.465881 
	C84.738136,211.736572 101.335419,202.390350 121.463806,198.224304 
z"/>

</svg>